<?xml version="1.0" encoding="UTF-8"?>
<svg id="_レイヤー_1" data-name="レイヤー 1" xmlns="http://www.w3.org/2000/svg" viewBox="0 0 653.09 1023.39">
  <defs>
    <style>
      .cls-1 {
        fill: #231815;
      }
    </style>
  </defs>
  <path class="cls-1" d="M225.02,160.98c-23.81-31.23-34.28-73.49-34.7-112.29-.14-12.78.1-28.21,6.64-39.67.98-1.71,2.14-3.37,3.73-4.57.66-.5,1.34-.85,2.08-1.22.89-.44,1.47-.05.97-.33-.21-.12-2.94-.21-2.93-.58,0,.08.74.29.86.38.95.78,2.12,1.33,3.08,2.13,2.38,2,4.41,4.43,6.27,6.9,6.86,9.11,11.82,19.67,16.33,30.08,7.81,18.05,14.01,36.79,19.74,55.59.53,1.74,9.68,3.28,9.84,1.77,2.22-20.67,5.59-41.71,12.96-61.24,2.24-5.93,4.86-11.92,8.64-17.06,1.33-1.81,2.82-3.55,4.65-4.88.73-.53,1.61-.86,2.33-1.38.15-.11.77-.19.85-.32.2-.03.39-.07.57-.14l-3.79-.73c.2.55,2.7,2.06,3.24,2.66,1.09,1.21,2,2.57,2.8,3.98,2.13,3.74,3.43,7.91,4.46,12.07,3.09,12.55,3.84,25.7,4.34,38.56.94,24.06.31,48.19-.45,72.24-.05,1.69,9.35,3.36,9.84,1.77,10.33-33.57,28.64-66.08,51.05-93.06,8.23-9.91,17.87-20.62,29.74-26.21,2.01-.95,4.06-1.67,6.25-2.05,1.05-.18,1.4.12,1.08-.16-.49-.42-1.99-1.02-1.05-.1,3.62,3.52,6.03,6.23,7.6,11.31,2.64,8.6,2.87,17.94,2.69,26.86-.3,15-2.31,29.94-4.74,44.73-.31,1.87,8.43,2.64,9.61,2.02,12.93-6.78,25.63-13.97,38.32-21.2,8.64-4.92,17.25-10.16,26.34-14.22,1.34-.6,2.71-1.22,4.12-1.65.49-.15,1.15-.19,1.59-.41,1.81-.88-5.66-2.06-5.96-1.35-.12.28.21,1.25.07,1.7-.4,1.22-.8,2.36-1.37,3.52-5.45,10.97-14.28,20.7-21.9,30.14-.71.88,8.13,2.38,9.07,2.19,12.2-2.43,24.53-4.6,36.95-5.48,6.01-.43,13.88-1.1,19.24.56,8.09,2.51,7.56,10.21,3.99,16.42-6.21,10.79-17.13,19.14-26.99,26.38-13.59,9.97-28.24,18.55-43.38,25.91-16.03,7.79-33.02,14.67-50.69,17.51-1.92.31.52,1.39,1.02,1.62,1.89.91,4.42,1.06,6.48,1.08,63.42.57,128.81,19.36,183.69,51.03,13.67,7.89,79.54,49.99,41.86,67.6-10.45,4.88-22.88,5.52-34.22,5.72-20.84.35-41.74-2.18-62.3-5.33-.44-.07-6.85-.52-4.54.87,24.05,14.48,47.98,29.46,70.3,46.54,11.42,8.73,24.07,18.38,31.88,30.71,3.22,5.08,5.7,12.18-.05,16.45-6.56,4.87-16.91,4.57-24.24,4.38-32.23-.87-65.54-9.74-96.95-18.72-39.59-11.32-78.62-25.15-116.19-42.06-16.37-7.37-32.52-15.37-47.88-24.68-11.34-6.87-22.75-14.45-31.81-24.24-1.7-1.84-3.3-3.78-4.75-5.83-1.01-1.43-9.92-2.22-9.72-1.45,5.34,20.35,8.79,41.37,10.88,62.29.9,8.96,1.63,18.06,1.12,27.06-.17,2.98-.39,6.11-1.35,8.96-.29.86-.7,1.61-1.09,2.42-.87,1.82-3.83.82,1.55,1.6,4.85.7,2.41.25.66-1.62-1.43-1.53-2.65-3.26-3.81-5-3.8-5.7-6.88-11.88-9.85-18.04-.74-1.53-8.71-3.03-9.72-1.45-7.23,11.33-14.52,23.36-24.01,32.99-2.29,2.32-4.69,4.33-7.61,5.79-.18.09-1.37.36-1.39.41.04-.1,4.53,1.04,4.6.89-.07.15-1.93-1.7-2.06-1.86-4.2-5.01-5.87-12.4-7.76-18.49-2.87-9.22-5.63-18.47-9.12-27.48-4.74-12.26-10.72-23.98-18.66-34.5-1.1-1.46-8.06-3.03-9.49-1.7-17.47,16.2-38.47,33.12-61.9,39.54-5.79,1.59-10.93,3.38-14.84-1.3-4.7-5.62-3.52-14.26-2-20.81,3.75-16.16,12.53-31.18,21.16-45.15.65-1.05-6.72-2.23-7.24-2.27-15.29-.96-31.06-1.83-45.98-5.56-3.7-.93-12.42-2.77-12.4-7.99.02-4.74,7.05-8.09,10.48-9.89,8.74-4.6,18.28-7.77,27.69-10.68,14.35-4.44,28.95-8.03,43.61-11.29,2.06-.46-.94-1.6-1.5-1.8-1.92-.7-4.74-1.27-6.8-.82-16.68,3.61-34.19,2.2-50.84-.81-18.56-3.35-36.79-8.96-54.12-16.39-14.27-6.12-29.06-13.54-40.38-24.41-6.34-6.09-13.21-15.47-7.57-24.23,3.66-5.68,10.74-8.82,16.83-11.06,11.6-4.25,24.1-6.02,36.32-7.37.98-.11.83-.65.2-1.09-9.04-6.31-18-13.11-25.35-21.39-4-4.51-8.19-9.97-9.03-16.13-1.51-11.07,9.98-16.15,18.93-18.25,16.33-3.83,33.93-2.56,50.37-.2,20.74,2.97,41.21,8.64,60.5,16.82,20.53,8.7,40.85,20.64,54.88,38.33,1.11,1.4,4.29,1.67,5.92,1.84.42.05,4.47.29,3.68-.71-13.21-16.65-31.98-28.21-51.06-37-20.97-9.66-43.47-16.23-66.19-20.25-19.46-3.44-39.93-5.51-59.62-2.7-9.53,1.36-25.51,4.72-27.27,16.44-.98,6.56,3.12,13.07,7,17.95,7.83,9.87,18.29,17.66,28.54,24.81l.2-1.09c-11.77,1.31-23.61,3.11-34.88,6.84-6.43,2.13-13.28,4.95-17.94,10.07-7.68,8.43-2.45,18.58,4.35,25.65,11.34,11.79,26.88,19.69,41.65,26.24,19.05,8.45,39.18,14.64,59.61,18.69s42.83,6.52,63.58,2.03l-8.3-2.62c-14.66,3.27-29.26,6.87-43.61,11.29-10.08,3.11-20.38,6.43-29.68,11.5-3.56,1.94-11.07,5.92-9.9,11.08,1.37,6.06,12.15,8.37,16.97,9.67,18.05,4.87,37.17,6.1,55.74,7.27l-7.24-2.27c-8.62,13.97-17.4,28.99-21.16,45.15-1.67,7.16-2.7,16.71,3.12,22.39s15.59,6.39,23.01,5.73c10.5-.93,20.61-5.39,29.77-10.37,15.37-8.35,29.28-19.28,42.08-31.14l-9.49-1.7c15.07,19.96,21.45,43.28,29.21,66.59,1.81,5.44,3.78,12.96,8.96,16.23,5.89,3.71,13.73,3.39,19.12-.81,4.24-3.31,7.75-7.69,11.02-11.91,6.19-7.97,11.71-16.46,17.14-24.96l-9.72-1.45c2.97,6.16,6.05,12.34,9.85,18.04,1.87,2.8,3.99,5.85,6.91,7.66,4.71,2.93,12.77,4.46,15.08-1.76,2.74-7.37,1.76-16.72,1.32-24.37-.68-12.1-2.22-24.15-4.1-36.11-2.02-12.84-4.45-25.66-7.74-38.23l-9.72-1.45c7.26,10.32,18.03,18.14,28.42,25.04,14.67,9.75,30.37,17.93,46.26,25.51,38.4,18.3,78.65,32.97,119.37,45.18,35.47,10.64,72.2,20.39,109.25,23.24,9.67.74,46.98,3.77,40.79-15.76-3.51-11.09-14.49-20.07-22.96-27.31-19.13-16.35-40.38-30.28-61.65-43.65-7.13-4.48-14.3-8.88-21.52-13.22l-4.54.87c14.09,2.16,137.18,21.39,115.42-24.83-3.59-7.63-9.75-14.03-15.93-19.63-8.93-8.11-18.92-15.06-29.2-21.36-26.75-16.4-56.08-28.76-85.95-38.22-38.66-12.24-79.07-19.55-119.67-19.92l7.49,2.7c16.76-2.7,32.94-8.98,48.24-16.16,16.55-7.77,32.55-17.01,47.28-27.87,10.83-7.98,47.38-36.8,18.57-45.79-8.65-2.7-18.03-3-27.01-2.61-14.39.62-28.69,3.08-42.79,5.89l9.07,2.19c7.32-9.07,15.19-18.23,20.96-28.41,2.13-3.76,4.17-7.52-1.02-9.21-6.05-1.97-11.15-.52-16.67,2.05-8.35,3.87-16.32,8.63-24.32,13.18-13.04,7.43-26.09,14.84-39.39,21.81l9.61,2.02c2.34-14.23,4.28-28.6,4.7-43.04.26-8.96.12-18.27-2.2-26.99-3.16-11.83-11.62-18.11-24.14-17.24s-22.63,10.99-30.59,19.23c-12.64,13.09-23.25,28.17-32.62,43.72-11.27,18.68-21.01,38.57-27.44,59.46l9.84,1.77c.76-23.85,1.38-47.76.48-71.61-.54-14.18-1.21-28.97-5.3-42.66-2.26-7.55-5.92-15.48-14.03-17.95-4.65-1.42-10.04-1.95-14.25.88-4.47,3-7.48,8.19-9.88,12.87-11.06,21.58-14.73,47.36-17.29,71.16l9.84,1.77c-5.35-17.57-11.15-35.05-18.2-52.02-4.52-10.89-9.5-21.84-16.18-31.59-3.53-5.16-7.79-10.51-13.63-13.15-4.7-2.13-11.72-3.68-16.52-.98-9.66,5.45-10.81,22.61-11.51,32.13-1.48,19.9.84,40.21,5.28,59.61,5.42,23.69,14.46,47.22,29.28,66.67,1.07,1.4,4.32,1.67,5.92,1.84.43.05,4.46.31,3.68-.71Z"/>
  <path class="cls-1" d="M443.93,220.11c-18.74-2.9-38.28,3.87-55.35,10.97-17.93,7.46-34.91,16.83-52.03,25.93-4.9,2.61-10,5.75-15.37,7.31-2.77.81-4.66.5-3.6-2.75.81-2.47,2.47-4.8,3.89-6.95,1.11-1.68,2.48-3.25,3.22-5.1,1.22-3.05,1.78-6.65,2.49-9.86.6-2.7,3.76-12.57-.4-14.05-3.05-1.09-6.29,2.44-9.51,1.16-2.35-.94-3.2-3.84-3.68-6.07-1.33-6.12-.72-12.76-.22-18.93.02-.29-6.09,3.34-6.56,3.74-5.24,4.43-9.28,9.92-13.73,15.08-.69.8-2.33,1.93-2.67,2.88,3.56-1.48,4.58-2.21,3.07-2.2-.17.02-.33-.01-.47-.11-.05-.18-.79-.51-.93-.81-1.63-3.32-1.55-7.14-1.55-10.78,0-.44-6.73,3.85-7.32,4.42-1.72,1.66-3.38,3.38-5.03,5.12-.81.87-1.68,1.71-2.45,2.61-2.65,3.07.66-.68.84-.29-.11-.23-2.77-1.83-3.23-2.49-1.59-2.3-2.46-5.2-3.33-7.82-.34-1.01-7.34,4.43-7.87,5,4.44-1.89,5.77-2.8,4-2.73h-.31c-.1-.13-.73-.04-.91-.25-.47-.54-1.11-.93-1.56-1.53-1.32-1.75-1.96-4.13-2.56-6.19-1.89-6.53-2.85-13.35-4.06-20.03-1.37-7.58-2.76-15.21-5.1-22.55-1.82-5.72-4.22-12.01-9.15-15.78-1.59-1.22-8.39,5.58-8.2,5.72,6.12,4.68,8.57,13.2,10.46,20.32,2.35,8.86,3.72,17.95,5.4,26.95.97,5.2,1.52,13.92,5.51,17.93s11.38-3.3,14.04-6.13l-7.87,5c1.96,5.85,4.13,12.81,11.13,9.01s11.32-9.77,16.72-14.98l-7.32,4.42c0,2.65-.72,10.27,2.61,11.67,2.56,1.07,6.59-2.35,8.38-3.67,7.32-5.4,11.55-13.73,18.43-19.54l-6.56,3.74c-.46,5.76-.92,11.74-.03,17.49.36,2.34.94,5.41,2.97,6.95,2.87,2.16,5.93.05,8.93-.4,4.74-.71,3.44,5.46,2.95,8.49-.89,5.52-1.85,12.41-4.84,17.11-1.64,2.58-3.5,5-4.87,7.75-1.04,2.09-2.59,5.4.75,5.78,4,.46,9.51-3.13,12.88-4.81,16.13-8.01,31.65-17.17,48.01-24.75,19.49-9.03,42.4-18.53,64.35-15.13,1.54.24,4.23-2.19,5.36-3.06.38-.29,3.24-2.65,2.31-2.8h0Z"/>
  <path class="cls-1" d="M311.1,305.54c36.31,91.75,63.52,188.06,72.87,286.53,9.07,95.56.6,193.72-36.33,283.02-21.66,52.38-52.82,100.23-91.3,141.8-3.68,3.98,4.99,8.86,8.37,5.21,34.58-37.36,63.34-79.85,84.67-126.09,20.17-43.72,33.44-90.33,40.75-137.88,15-97.57,4.77-197.74-18.25-293.22-13.15-54.55-30.68-107.99-51.32-160.15-1.79-4.52-11.6-4.62-9.46.78h0Z"/>
</svg>